<svg xmlns="http://www.w3.org/2000/svg" viewBox="0 0 60 60" width="60" height="60">
  <defs>
    <linearGradient id="ngraveGrad" x1="0%" y1="0%" x2="100%" y2="100%">
      <stop offset="0%" style="stop-color:#1a1a2e;stop-opacity:1" />
      <stop offset="100%" style="stop-color:#16213e;stop-opacity:1" />
    </linearGradient>
    <linearGradient id="accentGrad" x1="0%" y1="0%" x2="100%" y2="0%">
      <stop offset="0%" style="stop-color:#e94560;stop-opacity:1" />
      <stop offset="100%" style="stop-color:#ff6b6b;stop-opacity:1" />
    </linearGradient>
  </defs>
  <!-- Background circle -->
  <circle cx="30" cy="30" r="28" fill="url(#ngraveGrad)" stroke="#e94560" stroke-width="1.5"/>
  <!-- Shield shape representing security -->
  <path d="M30 10 L45 18 L45 32 C45 42 38 48 30 52 C22 48 15 42 15 32 L15 18 Z" 
        fill="none" stroke="#e94560" stroke-width="2" stroke-linejoin="round"/>
  <!-- Inner shield accent -->
  <path d="M30 16 L40 22 L40 32 C40 39 35 44 30 47 C25 44 20 39 20 32 L20 22 Z" 
        fill="url(#accentGrad)" opacity="0.2"/>
  <!-- N letter stylized -->
  <path d="M24 26 L24 38 M24 26 L36 38 M36 26 L36 38" 
        fill="none" stroke="#ffffff" stroke-width="2.5" stroke-linecap="round" stroke-linejoin="round"/>
  <!-- Zero/key indicator dots -->
  <circle cx="30" cy="21" r="2" fill="#e94560"/>
</svg>
